<?xml version="1.0" encoding="iso-8859-1"?>
<!-- Generator: Adobe Illustrator 19.0.0, SVG Export Plug-In . SVG Version: 6.00 Build 0)  -->
<svg version="1.1" id="Capa_1" xmlns="http://www.w3.org/2000/svg" xmlns:xlink="http://www.w3.org/1999/xlink" x="0px" y="0px"
	 viewBox="0 0 512 512" style="enable-background:new 0 0 512 512;" xml:space="preserve">
<path style="fill:#EAE4D6;" d="M276.829,7.5H27.594c-9.575,0-17.336,7.761-17.336,17.336c0,20.807,0,476.278,0,462.327
	c0,9.575,7.761,17.336,17.336,17.336h320.339c11.285,0,20.338-8.708,21.32-19.458c0.144-1.553,0.099,6.307,0.099-137.295
	c0-0.009,0-0.019,0-0.028c0-8.485,0-246.304,0-244.967c0-10.824-5.299-20.203-12.953-27.857l-56.37-56.369
	C293.612,12.107,285.907,7.5,276.829,7.5z"/>
<path style="fill:#DDD3C0;" d="M44.914,487.164c0-99.267,0-363.745,0-462.327c0-9.575,7.761-17.336,17.335-17.336H27.594
	c-9.575,0-17.336,7.761-17.336,17.336c0,97.819,0,368.496,0,462.327c0,9.575,7.761,17.336,17.336,17.336h34.655
	C52.676,504.5,44.914,496.738,44.914,487.164z"/>
<path style="fill:#F9F6ED;" d="M365.678,85.848L365.678,85.848c-1.749-3.709-3.843-7.146-6.948-10.558
	c-0.301-0.331-57.819-58.158-60.76-60.469c-2.355-1.848-4.406-3.026-6.962-4.238l0,0C281.707,6.349,274.598,7.8,269.95,7.5
	c0,0,21.057,2.299,21.057,24.801c0,33.706-0.307,33.841,0.779,37.78c2.48,9.087,10.789,15.767,20.64,15.767h31.385
	c4.507,0.088,25.543,1.74,25.543,24.958C369.004,105.428,370.72,96.925,365.678,85.848z"/>
<path style="fill:#EFECE4;" d="M321.02,64.65c-0.022-1.671-0.007-14.195-0.011-27.149c-20.19-20.169-22.465-23.487-30.002-26.918
	l0,0l0,0C281.707,6.349,274.598,7.8,269.95,7.5c0,0,21.057,2.299,21.057,24.801c0,18.593,0,13.335,0,32.128
	c0,11.616,9.442,21.419,21.419,21.419h30.002C330.514,85.848,321.154,76.18,321.02,64.65z"/>
<path style="fill:#FFFFFF;" d="M173.314,208.649c-0.056-0.548-0.167-1.08-0.327-1.59c-0.08-0.256-0.172-0.506-0.276-0.75
	c-1.245-2.93-4.156-4.999-7.527-4.999l0,0H53.086l0,0c-4.502,0-8.171,3.682-8.171,8.171c0,13.92,0,114.706,0,132.928
	c0,4.494,3.677,8.172,8.171,8.172c24.99,0,88.092,0,112.099,0c4.494,0,8.171-3.677,8.171-8.172c0-18.222,0-119.008,0-132.928
	C173.356,209.2,173.342,208.923,173.314,208.649z"/>
<path style="fill:#F9F6ED;" d="M74.916,342.41c0-18.222,0-119.008,0-132.928c0-0.281,0.014-0.559,0.042-0.832
	c0.056-0.548,0.167-1.08,0.327-1.59c0.08-0.256,0.172-0.506,0.276-0.75c1.245-2.93,4.156-4.999,7.527-4.999H53.087
	c-4.495,0-8.171,3.676-8.171,8.171c0,13.92,0,114.706,0,132.928c0,4.494,3.677,8.172,8.171,8.172c7.531,0,22.324,0,30.002,0
	C78.593,350.581,74.916,346.904,74.916,342.41z"/>
<path style="fill:#FFFFFF;" d="M327.737,201.309L327.737,201.309H213.218l0,0c-2.872,0-5.352,1.762-6.413,4.259
	c-0.354,0.832-0.549,1.746-0.549,2.703c0,13.086,0,115.272,0,135.348c0,3.829,3.133,6.962,6.962,6.962c16.305,0,98.099,0,114.518,0
	c3.829,0,6.962-3.133,6.962-6.962c0-20.075,0-122.263,0-135.348C334.7,204.442,331.567,201.309,327.737,201.309z"/>
<path style="fill:#F94A46;" d="M132.922,306.037H85.349c-8.298,0-15.022,6.726-15.022,15.023v29.636h77.618v-29.636
	C147.943,312.763,141.219,306.037,132.922,306.037z"/>
<circle style="fill:#F7CF9C;" cx="109.136" cy="257.956" r="25.122"/>
<path style="fill:#EAB883;" d="M109.134,257.958c-4.649-8.052-4.328-17.606,0.001-25.124c-4.271-0.004-8.6,1.074-12.565,3.363
	c-12.018,6.938-16.135,22.305-9.197,34.323s22.305,16.136,34.323,9.198c3.965-2.289,7.063-5.498,9.195-9.2
	C122.217,270.508,113.783,266.01,109.134,257.958z"/>
<path style="fill:#70B5E8;" d="M294.264,306.037h-47.573c-8.298,0-15.023,6.726-15.023,15.023v29.636h77.618v-29.636
	C309.287,312.763,302.562,306.037,294.264,306.037z"/>
<path style="fill:#EF3C3C;" d="M124.157,306.037H85.348c-8.298,0-15.022,6.726-15.022,15.023v29.636h38.809v-29.636
	C109.135,312.763,115.859,306.037,124.157,306.037z"/>
<path style="fill:#52A5D8;" d="M285.501,306.037h-38.809c-8.298,0-15.022,6.726-15.022,15.023v29.636h38.809v-29.636
	C270.478,312.763,277.203,306.037,285.501,306.037z"/>
<circle style="fill:#F7CF9C;" cx="270.476" cy="257.956" r="25.122"/>
<path style="fill:#EAB883;" d="M270.478,232.834c-4.271-0.004-8.6,1.074-12.565,3.363c-12.018,6.938-16.135,22.305-9.197,34.323
	c9.712,16.82,33.944,16.618,43.518-0.002C272.893,270.497,260.827,249.591,270.478,232.834z"/>
<path style="fill:#FFFFFF;" d="M294.921,450.902h-48.887c-6.865,0-12.482-5.616-12.482-12.482v-48.887
	c0-6.865,5.616-12.482,12.482-12.482h48.887c6.865,0,12.482,5.616,12.482,12.482v48.887
	C307.403,445.286,301.786,450.902,294.921,450.902z"/>
<path style="fill:#F9F6ED;" d="M270.478,438.421v-48.887c0-6.865,5.617-12.482,12.482-12.482h-36.925
	c-6.865,0-12.482,5.616-12.482,12.482v48.887c0,6.865,5.616,12.482,12.482,12.482h36.925
	C276.095,450.902,270.478,445.286,270.478,438.421z"/>
<path style="fill:#F94A46;" d="M133.579,450.902H84.692c-6.864,0-12.482-5.616-12.482-12.482v-48.887
	c0-6.865,5.617-12.482,12.482-12.482h48.887c6.865,0,12.482,5.616,12.482,12.482v48.887
	C146.06,445.286,140.443,450.902,133.579,450.902z"/>
<path style="fill:#EF3C3C;" d="M109.135,438.421v-48.887c0-6.865,5.616-12.482,12.482-12.482H84.692
	c-6.865,0-12.482,5.616-12.482,12.482v48.887c0,6.865,5.616,12.482,12.482,12.482h36.925
	C114.751,450.902,109.135,445.286,109.135,438.421z"/>
<path style="fill:#DDDDDD;" d="M409.806,392.285v15.773c0,30.735,18.772,46.65,24.83,56.978c2.275,3.157,6.975,3.157,9.251,0
	c6.058-10.33,24.829-26.243,24.829-56.978v-15.773C467.48,392.32,411.044,392.32,409.806,392.285z"/>
<path style="fill:#CCCCCC;" d="M437.834,408.058v-15.751c-11.666-0.008-26.613,0.018-28.028-0.022v15.773
	c0,30.735,18.772,46.65,24.83,56.977c2.275,3.157,6.975,3.157,9.251,0c2.066-3.523,5.613-7.698,9.389-12.889
	C445.983,442.123,437.834,428.308,437.834,408.058z"/>
<path style="fill:#666666;" d="M416.96,438.736c5.973,12.038,14.073,20.157,17.676,26.301c2.275,3.157,6.975,3.157,9.251,0
	c3.603-6.143,11.703-14.263,17.676-26.301H416.96z"/>
<path style="fill:#535454;" d="M444.994,438.736H416.96l0,0c5.967,12.028,14.066,20.146,17.676,26.301c2.28,3.164,6.98,3.15,9.251,0
	c2.017-3.439,5.773-7.921,9.388-12.891C450.469,448.289,447.541,443.864,444.994,438.736z"/>
<path style="fill:#70B5E8;" d="M407.832,107.876v281.068c0,3.512,2.847,6.358,6.359,6.358h51.395c2.819,0,5.104-2.285,5.104-5.104
	c0-17.184,0-299.954,0-282.886c0-5.797-4.699-10.497-10.497-10.497h-41.302C412.784,96.816,407.832,101.767,407.832,107.876z"/>
<g>
	<path style="fill:#52A5D8;" d="M437.834,388.945V107.876c0-6.108,4.951-11.06,11.06-11.06h-30.002
		c-6.108,0-11.06,4.952-11.06,11.06v281.068c0,3.512,2.847,6.359,6.359,6.359h30.002
		C440.681,395.303,437.834,392.456,437.834,388.945z"/>
	<path style="fill:#52A5D8;" d="M460.194,96.816h-41.302c-6.108,0-11.06,4.951-11.06,11.061v32.39h62.859
		c0-11.407,0-21.535,0-32.954C470.691,101.515,465.992,96.816,460.194,96.816z"/>
</g>
<path style="fill:#4297CC;" d="M407.832,140.266h30.002v-32.39c0-6.108,4.951-11.06,11.06-11.06
	c-32.92,0.081-32.448-0.636-36.185,1.889c-2.961,2-4.876,5.376-4.876,9.172V140.266z"/>
<path style="fill:#F94A46;" d="M439.261,56.878c-11.407,0-20.654,9.248-20.654,20.654c0,1.676,0,8.749,0,19.283h41.309V77.533
	C459.916,66.126,450.669,56.878,439.261,56.878z"/>
<path style="fill:#EF3C3C;" d="M449.589,59.665c-13.628-7.893-30.981,1.876-30.981,17.868c0,1.677,0,8.75,0,19.283h20.654
	c0-10.534,0-17.606,0-19.283C439.262,69.892,443.421,63.238,449.589,59.665z"/>
<path d="M225.965,156.818c0-4.143-3.357-7.5-7.5-7.5h-62.092c-4.143,0-7.5,3.357-7.5,7.5c0,4.143,3.357,7.5,7.5,7.5h62.092
	C222.608,164.319,225.965,160.961,225.965,156.818z"/>
<path d="M125.326,132.819h124.186c4.143,0,7.5-3.357,7.5-7.5s-3.357-7.5-7.5-7.5H125.326c-4.143,0-7.5,3.357-7.5,7.5
	C117.826,129.462,121.184,132.819,125.326,132.819z"/>
<path d="M125.326,101.318h124.186c4.143,0,7.5-3.357,7.5-7.5s-3.357-7.5-7.5-7.5H125.326c-4.143,0-7.5,3.357-7.5,7.5
	S121.184,101.318,125.326,101.318z"/>
<path d="M37.266,203.379c-0.202,0.479-0.382,0.968-0.526,1.434c-0.311,0.992-0.523,2.022-0.631,3.063
	c-0.055,0.524-0.082,1.064-0.082,1.604V342.41c0,8.642,7.03,15.672,15.672,15.672c19.787,0.001,6.02,0.128,112.099,0
	c8.643,0,15.673-7.03,15.673-15.672c-0.019-97.086-0.071-125.485-0.101-132.508c0.005-0.379,0.012-1.019,0.019-2.024
	c-0.809-7.841-7.418-14.068-15.591-14.068h-112.1C45.401,193.809,39.737,197.563,37.266,203.379z M139.056,343.081H76.439v-22.021
	c0-4.147,3.374-7.522,7.521-7.522h47.573c4.147,0,7.521,3.375,7.521,7.522v22.021H139.056z M164.466,209.42L164.466,209.42
	l0.002,0.061c-0.337,140.52,0.693,133.6-0.672,133.6h-9.74v-22.021c0-12.42-10.105-22.523-22.522-22.523H83.962
	c-12.419,0-22.522,10.105-22.522,22.523v22.021c-8.626-0.265-10.411,0.58-10.411-0.671l0.002-132.989
	c0.005-0.043,0.013-0.083,0.045-0.179c0.064-0.149,0.275-0.432,0.624-0.432C165.35,209.382,164.298,207.938,164.466,209.42z"/>
<path d="M339.666,202.636c-2.277-5.362-7.505-8.828-13.317-8.828H211.831c-8.044,0-14.463,6.544-14.463,14.463V343.62
	c0,7.974,6.487,14.462,14.463,14.462c2.943,0.003,98.916,0.165,114.518,0c7.975,0,14.463-6.487,14.463-14.462
	C340.42,202.331,341.779,207.612,339.666,202.636z M300.4,343.081h-62.617v-22.021c0-4.147,3.374-7.522,7.522-7.522h47.573
	c4.147,0,7.521,3.375,7.521,7.522V343.081z M325.811,343.081h-10.411v-22.021c0-12.42-10.105-22.523-22.522-22.523h-47.573
	c-12.419,0-22.523,10.105-22.523,22.523v22.021H212.37V208.81h113.442L325.811,343.081L325.811,343.081z"/>
<path d="M107.746,290.584c17.99,0,32.626-14.637,32.626-32.627s-14.636-32.627-32.626-32.627S75.12,239.967,75.12,257.957
	S89.756,290.584,107.746,290.584z M107.746,240.331c9.719,0,17.625,7.906,17.625,17.626s-7.906,17.626-17.625,17.626
	s-17.625-7.906-17.625-17.626C90.121,248.237,98.027,240.331,107.746,240.331z"/>
<path d="M269.09,290.584c17.99,0,32.626-14.637,32.626-32.627S287.08,225.33,269.09,225.33s-32.626,14.637-32.626,32.627
	S251.1,290.584,269.09,290.584z M269.09,240.331c9.719,0,17.625,7.906,17.625,17.626s-7.906,17.626-17.625,17.626
	s-17.625-7.906-17.625-17.626C251.465,248.237,259.371,240.331,269.09,240.331z"/>
<path d="M244.647,369.551c-11.019,0-19.981,8.965-19.981,19.982v48.887c0,11.019,8.964,19.981,19.981,19.981h48.887
	c11.019,0,19.983-8.964,19.983-19.981v-48.887c0-11.019-8.965-19.982-19.983-19.982H244.647z M298.516,389.535v48.887
	c0,2.699-2.281,4.98-4.982,4.98h-48.887c-2.699,0-4.98-2.281-4.98-4.98v-48.887c0-2.7,2.281-4.981,4.98-4.981h48.887
	C296.234,384.552,298.516,386.834,298.516,389.535z"/>
<path d="M83.305,369.551c-11.019,0-19.982,8.965-19.982,19.982v48.887c0,11.019,8.965,19.981,19.982,19.981h48.887
	c11.019,0,19.983-8.964,19.983-19.981v-48.887c0-11.019-8.965-19.982-19.983-19.982H83.305z M137.173,389.535v48.887
	c0,2.699-2.281,4.98-4.982,4.98H83.305c-2.7,0-4.981-2.281-4.981-4.98v-48.887c0-2.7,2.281-4.981,4.981-4.981h48.887
	C134.892,384.552,137.173,386.834,137.173,389.535z"/>
<path d="M126.168,397.74c-3.124-2.718-7.861-2.391-10.582,0.733l-12.532,14.4l-2.96-3.677c-2.599-3.227-7.319-3.737-10.547-1.14
	c-3.227,2.598-3.736,7.319-1.139,10.547c7.436,8.271,8.644,13.344,14.277,13.453c2.162,0.044,4.311-0.864,5.801-2.575l18.414-21.159
	C129.621,405.197,129.292,400.459,126.168,397.74z"/>
<path d="M476.216,102.827c-1.387-5.377-5.187-9.788-10.188-11.989V77.533c0-15.524-12.63-28.155-28.154-28.155
	S409.72,62.009,409.72,77.533V91.05c-6.35,2.951-10.775,9.375-10.775,16.826c0,15.49,0,60.567,0,75.933c0,4.143,3.357,7.5,7.5,7.5
	c4.143,0,7.5-3.357,7.5-7.5v-36.041h47.859v240.036h-47.859V218.81c0-4.143-3.357-7.5-7.5-7.5c-4.143,0-7.5,3.357-7.5,7.5
	c0.735,176.41-1.776,170.968,1.975,177.228v12.021c0,27.455,11.994,41.652,26.245,61.362c4.188,5.815,10.811,5.509,10.711,5.484
	c4.829,0,9.142-2.744,11.096-6.074c5.711-9.739,25.86-27.24,25.86-60.773v-11.114c3.764-5.911,1.221,5.85,1.975-256.678v-22.397
	c10.467,0.547,18.821,9.21,18.821,19.811v100.209c-1.849,0.328-8.589-1.563-11.219,4.526c-1.188,2.747-0.627,5.937,1.425,8.115
	c3.92,3.456,6.526,9.279,13.55,9.279c6.132,0,11.245-4.917,11.245-11.23v-110.9C510.627,118.607,495.231,103.071,476.216,102.827z
	 M437.875,458.377c-2.593-3.741-5.617-7.316-9.019-12.141h18.037C443.59,450.918,440.339,454.818,437.875,458.377z M455.325,431.235
	h-34.902c-5.764-14.06-4.242-25.298-4.503-28.428h43.909C459.561,406.011,461.108,417.13,455.325,431.235z M424.72,77.533
	c0-7.253,5.9-13.154,13.154-13.154c7.252,0,13.153,5.9,13.153,13.154v11.783h-26.308L424.72,77.533L424.72,77.533z M461.803,132.766
	h-47.859v-24.891c0-1.963,1.597-3.56,3.56-3.56c16.308,0,26.391,0,41.302,0c1.652,0,2.996,1.344,2.996,2.996V132.766z"/>
<path d="M363.647,71.108c2.541,2.208-59.172-59.399-60.629-60.686C289.452-1.278,276.969,0.144,268.562,0H88.323
	c-4.143,0-7.5,3.357-7.5,7.5s3.357,7.5,7.5,7.5c192.403,0.868,179.211-2.056,186.708,2.77c4.769,3.067,7.087,7.82,7.087,14.53
	c0.005,31.107-0.728,35.368,1.724,41.907c4.119,11.449,15.048,19.141,27.196,19.141c28.735,0.266,34.881-1.322,42.127,2.817
	c4.902,2.8,7.289,7.575,7.3,14.595v288.58c0,4.143,3.357,7.5,7.5,7.5c4.143,0,7.5-3.357,7.5-7.5
	c0.001-317.492,0.148-298.078-0.336-302.219C373.33,81.514,364.816,72.951,363.647,71.108z M311.038,78.348
	c-6.802,0-13.497-5.004-13.919-14.11c-0.195-30.362,0.479-33.315-0.675-39.302c0.127,0.127,53.512,53.505,54.47,54.479
	C347.283,78.57,341.074,78.532,311.038,78.348z"/>
<path d="M367.966,426.842c-4.143,0-7.5,3.357-7.5,7.5c-0.133,54.446,0.474,48.827-0.839,53.439
	c-1.983,5.513-7.239,9.218-13.08,9.218H26.207c-5.423,0-9.835-4.412-9.835-9.836V24.837c0-5.423,4.411-9.836,9.835-9.836h27.114
	c4.143,0,7.5-3.357,7.5-7.5S57.464,0,53.321,0H26.207C12.513,0,1.372,11.142,1.372,24.837v462.327
	C1.372,500.858,12.513,512,26.207,512h320.339c15.937,0,28.92-13.046,28.92-28.963v-48.694
	C375.466,430.2,372.109,426.842,367.966,426.842z"/>
<g>
</g>
<g>
</g>
<g>
</g>
<g>
</g>
<g>
</g>
<g>
</g>
<g>
</g>
<g>
</g>
<g>
</g>
<g>
</g>
<g>
</g>
<g>
</g>
<g>
</g>
<g>
</g>
<g>
</g>
</svg>
