<svg fill="#fff" xmlns="http://www.w3.org/2000/svg" xmlns:xlink="http://www.w3.org/1999/xlink" version="1.1" x="0px" y="0px" viewBox="0 0 100 100" enable-background="new 0 0 100 100" xml:space="preserve"><g><g><g><polygon points="74.359,38.649 74.76,64.307 71.371,69.109 71.225,43.215 71.225,43.18    "></polygon><path d="M57.328,36.455l-6.723-10.489c-0.037-0.038-0.146-0.056-0.219-0.019l-18.139,7.429l2.809,3.643l1.975,2.555     c0.453,0.035,1.559,0.072,4.223,0.072c6.359,0,14.84-0.218,17.848-0.417c-0.072-0.108-0.127-0.218-0.217-0.326L57.328,36.455z      M59.828,36.385l14.406-0.363l-4.441,6.397H41.254h-19.68l7.068-5.238l3.77-0.09l-1.939-2.501     c-0.037-0.072-0.09-0.127-0.127-0.199c-0.309-0.526-0.363-1.177-0.146-1.758c0.201-0.508,0.598-0.941,1.107-1.196     c0.055-0.018,0.09-0.035,0.145-0.053l18.082-7.413c0.273-0.125,0.6-0.199,0.943-0.199c0.816,0,1.561,0.417,1.957,1.088     L59.828,36.385z"></path><polygon points="69.738,64.434 69.756,71.627 20.613,71.627 20.613,64.434    "></polygon><polygon points="69.631,44.012 69.666,51.169 20.613,51.169 20.613,44.012    "></polygon><polygon points="61.059,56.66 58.795,58.817 59.32,61.879 56.512,60.43 53.721,61.879 54.246,58.817 51.98,56.66 55.115,56.207      56.512,53.435 57.926,56.207    "></polygon><polygon points="48.846,56.66 46.58,58.817 47.125,61.879 44.316,60.43 41.508,61.879 42.051,58.817 39.785,56.66 42.904,56.207      44.316,53.435 45.711,56.207    "></polygon><polygon points="36.652,56.66 34.387,58.817 34.912,61.879 32.104,60.43 29.293,61.879 29.838,58.817 27.574,56.66      30.707,56.207 32.104,53.435 33.516,56.207    "></polygon></g></g></g></svg>